<svg width="146" height="42" viewBox="0 0 146 42" fill="none" xmlns="http://www.w3.org/2000/svg">
<g clip-path="url(#clip0_0_259)">
<path d="M46.4219 16.8831L48.6334 15.8832C49.1119 17.4087 50.388 18.5709 52.2589 18.5709C53.8195 18.5709 55.1645 17.7633 55.1645 16.0712C55.1645 14.597 54.1816 13.9518 52.3322 13.2125L51.2286 12.7852C48.8015 11.8323 47.0728 10.5248 47.0728 8.11903C47.0728 5.38 49.3533 3.6665 52.1641 3.6665C54.9749 3.6665 56.7769 5.40564 57.4968 7.21314L55.4534 8.30705C54.755 6.87984 53.7247 6.0936 52.2589 6.0936C50.7932 6.0936 49.7629 6.83284 49.7629 8.1404C49.7629 9.16593 50.388 9.9479 52.3107 10.7128L53.4617 11.1657C56.3673 12.3066 57.9753 13.6185 57.9753 16.0926C57.9753 19.3785 55.143 21.045 52.2848 21.045C49.4266 21.045 47.0254 19.3315 46.4262 16.8788L46.4219 16.8831Z" fill="#0067B1"/>
<path d="M60.0121 14.6183V3.90576H62.7237V14.6183C62.7237 17.4514 64.4524 18.4983 66.2803 18.4983C68.1081 18.4983 69.8584 17.4514 69.8584 14.6183V3.90576H72.57V14.6183C72.57 18.7846 69.8067 21.045 66.276 21.045C62.7453 21.045 60.0078 18.7846 60.0078 14.6183H60.0121Z" fill="#0067B1"/>
<path d="M75.2188 3.90576H81.03C84.7029 3.90576 87.0093 6.19185 87.0093 9.5462C87.0093 12.9006 84.7029 15.1653 81.03 15.1653H77.9304V20.8057H75.2188V3.90576ZM80.767 12.6655C82.8578 12.6655 84.2503 11.7126 84.2503 9.5462C84.2503 7.37976 82.8578 6.4055 80.767 6.4055H77.9347V12.6655H80.767Z" fill="#0067B1"/>
<path d="M94.965 15.0243H91.8913V20.81H89.1797V3.90576H94.9435C98.5475 3.90576 100.85 6.19185 100.85 9.5462C100.85 11.9989 99.5993 13.8064 97.5128 14.5927L101.595 20.8057H98.6897L94.9693 15.02L94.965 15.0243ZM94.6288 12.6655C96.7196 12.6655 98.0862 11.7126 98.0862 9.5462C98.0862 7.37976 96.7153 6.4055 94.6288 6.4055H91.8913V12.6655H94.6288Z" fill="#0067B1"/>
<path d="M103.727 3.90576H113.142V6.4055H106.442V11.0973H112.111V13.5244H106.442V18.3102H113.357V20.81H103.727V3.90576Z" fill="#0067B1"/>
<path d="M115.617 3.90576H118.618L124.67 17.3574L130.744 3.90576H133.745V20.8057H131.033V9.14026H130.913L125.679 20.8057H123.661L118.449 9.14026H118.329V20.8057H115.617V3.90576Z" fill="#0067B1"/>
<path d="M136.371 3.90576H145.786V6.4055H139.087V11.0973H144.756V13.5244H139.087V18.3102H146.002V20.81H136.371V3.90576Z" fill="#0067B1"/>
<path d="M46.5781 31.262C46.5781 27.0402 49.807 24.2285 53.674 24.2285C55.4415 24.2285 57.7005 24.8267 59.1576 27.0616L57.5625 28.1811C56.5537 26.7924 55.0923 26.3095 53.7128 26.3095C50.9926 26.3095 48.8328 28.2196 48.8328 31.262C48.8328 34.3044 50.9926 36.2743 53.7128 36.2743C55.6786 36.2743 57.4461 35.253 57.8341 32.7661H54.2387V30.9329H59.9767C60.4638 35.5607 57.3513 38.2954 53.618 38.2954C49.8846 38.2954 46.5781 35.4795 46.5781 31.262Z" fill="#00AEEF"/>
<path d="M66.6235 33.4197H64.1361V38.103H61.9375V24.4207H66.6063C69.5248 24.4207 71.3915 26.2709 71.3915 28.9886C71.3915 30.9755 70.3827 32.4369 68.6885 33.0736L71.995 38.103H69.6412L66.6278 33.4197H66.6235ZM66.3519 31.5097C68.0419 31.5097 69.1541 30.7405 69.1541 28.9843C69.1541 27.2281 68.0462 26.4418 66.3519 26.4418H64.1361V31.5097H66.3519Z" fill="#00AEEF"/>
<path d="M72.6484 31.262C72.6484 27.0616 75.8946 24.2285 79.7055 24.2285C83.5164 24.2285 86.7626 27.0616 86.7626 31.262C86.7626 35.4624 83.4949 38.2954 79.7055 38.2954C75.9162 38.2954 72.6484 35.4624 72.6484 31.262ZM79.7055 36.2144C82.2705 36.2144 84.5079 34.2659 84.5079 31.262C84.5079 28.258 82.2705 26.3095 79.7055 26.3095C77.1405 26.3095 74.9031 28.258 74.9031 31.262C74.9031 34.2659 77.1405 36.2144 79.7055 36.2144Z" fill="#00AEEF"/>
<path d="M88.7109 33.0908V24.4165H90.9095V33.0908C90.9095 35.3854 92.3106 36.2315 93.7893 36.2315C95.2679 36.2315 96.6863 35.3854 96.6863 33.0908V24.4165H98.8849V33.0908C98.8849 36.4623 96.6475 38.2954 93.7893 38.2954C90.9311 38.2954 88.7152 36.4623 88.7152 33.0908H88.7109Z" fill="#00AEEF"/>
<path d="M101.016 24.4207H105.723C108.698 24.4207 110.564 26.2709 110.564 28.9886C110.564 31.7062 108.698 33.5351 105.723 33.5351H103.214V38.103H101.016V24.4207ZM105.508 31.5139C107.198 31.5139 108.327 30.7448 108.327 28.9886C108.327 27.2323 107.198 26.4461 105.508 26.4461H103.214V31.5139H105.508Z" fill="#00AEEF"/>
<path d="M20.4632 41.5C15.0228 41.5 10.1772 39.4361 6.01713 35.3383C1.93032 31.313 -0.0915265 26.3008 -0.000995871 20.4381C0.0852237 15.0498 2.49937 9.74692 6.62498 5.88835C10.5394 2.22207 15.5315 0.316281 20.6831 0.512842C26.3132 0.3291 31.314 2.35026 35.5474 6.52931C39.5264 10.4605 41.5698 15.5583 41.4577 21.2799C41.2335 32.7189 32.0684 40.1241 23.5585 41.2821C22.5066 41.4274 21.4763 41.4957 20.4632 41.4957V41.5ZM19.9545 2.29043C15.5228 2.29043 11.255 4.01675 7.86654 7.19163C4.09444 10.7255 1.88721 15.5626 1.80531 20.4723C1.71909 25.8307 3.56419 30.4072 7.28887 34.0734C11.8025 38.5174 17.1955 40.3463 23.3171 39.5173C31.0855 38.4619 39.4531 31.7019 39.6557 21.2543C39.7592 15.9557 37.9486 11.4305 34.2756 7.80268C30.4044 3.97829 25.8476 2.12806 20.7176 2.30753H20.6831H20.6486C20.4201 2.29898 20.1873 2.29471 19.9588 2.29471L19.9545 2.29043Z" fill="#0067B1"/>
<path d="M26.8721 7.3243C27.3678 7.54223 28.9672 8.28574 29.8294 8.81133V14.2381H29.0017C28.8077 14.2381 28.2085 11.4393 24.6476 8.98225C23.35 8.08918 21.6989 7.41404 20.2116 7.41404C18.7243 7.41404 17.5733 7.82425 16.6163 8.64041C15.6635 9.45656 15.1807 10.4821 15.1807 11.717C15.1807 12.7041 15.6247 13.5929 16.5171 14.3877C17.4052 15.1825 19.1209 15.9345 21.6601 16.6396C25.6391 17.7591 28.3335 19.1393 29.7432 20.7802C31.14 22.421 31.8383 24.2499 31.8383 26.2582C31.8383 28.2666 31.3253 30.0356 30.3036 31.4286C29.2776 32.8216 28.0533 33.9198 26.635 34.7189C25.2081 35.5179 23.3802 35.9196 21.1557 35.9196C19.8926 35.9196 18.5864 35.7401 17.237 35.3769C15.8877 35.018 14.4737 34.5138 13.0511 33.7617C12.0725 33.2404 10.4774 32.3217 10.0938 32.0739V25.9591H11.0379C11.081 26.1258 11.1413 26.3437 11.2448 26.6086C12.1501 28.8135 13.3917 30.6937 15.0255 32.0354C16.6723 33.39 18.6942 34.3087 20.7591 34.3087C22.5094 34.3087 23.9234 33.7959 25.0011 32.7661C26.0746 31.7363 26.6134 30.574 26.6134 29.2665C26.6134 27.9589 26.1177 26.8607 25.1218 25.9634C24.1303 25.0703 22.3369 24.2114 19.7547 23.3867C17.2457 22.5791 15.379 21.81 14.1547 21.075C12.9304 20.34 11.9475 19.3316 11.2146 18.0497C10.4774 16.7635 10.1153 15.4602 10.1153 14.1398C10.1153 11.8367 11.0163 9.87532 12.8183 8.2601C14.6246 6.64916 17.0775 5.84155 20.1814 5.84155C21.8584 5.84155 24.1734 6.13639 26.8807 7.31576L26.8721 7.3243Z" fill="#0067B1"/>
</g>
<defs>
<clipPath id="clip0_0_259">
<rect width="146" height="41" fill="white" transform="translate(0 0.5)"/>
</clipPath>
</defs>
</svg>
